<?xml version="1.0" standalone="no"?>
<!DOCTYPE svg PUBLIC "-//W3C//DTD SVG 20010904//EN"
 "http://www.w3.org/TR/2001/REC-SVG-20010904/DTD/svg10.dtd">
<svg version="1.0" xmlns="http://www.w3.org/2000/svg"
 width="1000.000000pt" height="1000.000000pt" viewBox="0 0 1000.000000 1000.000000"
 preserveAspectRatio="xMidYMid meet">
<metadata>
Created by potrace 1.14, written by Peter Selinger 2001-2017
</metadata>
<g transform="translate(0.000000,1000.000000) scale(0.100000,-0.100000)"
fill="#000000" stroke="none">
<path d="M4738 9995 c-1 -1 -52 -6 -113 -9 -60 -4 -119 -9 -130 -11 -11 -2
-47 -7 -80 -10 -33 -3 -71 -7 -85 -9 -14 -2 -46 -7 -71 -10 -50 -7 -88 -14
-184 -31 -63 -12 -64 -12 -170 -35 -587 -127 -1216 -402 -1733 -757 -786 -539
-1418 -1313 -1778 -2175 -14 -35 -32 -76 -39 -93 -34 -79 -127 -346 -145 -415
-5 -19 -23 -84 -39 -145 -40 -143 -93 -391 -115 -540 -4 -28 -18 -142 -31
-245 -27 -224 -27 -824 0 -1015 2 -16 9 -73 15 -125 10 -86 17 -132 35 -240 4
-19 8 -46 10 -60 6 -35 60 -275 75 -330 7 -25 14 -52 15 -60 8 -38 78 -257
118 -370 358 -1006 1069 -1908 1958 -2485 74 -48 146 -96 161 -106 15 -11 29
-19 32 -19 2 0 38 -20 78 -44 161 -95 495 -253 698 -330 253 -96 545 -180 805
-231 107 -20 109 -21 190 -34 120 -18 138 -21 195 -27 30 -3 69 -7 85 -9 202
-27 848 -27 1007 0 13 2 50 6 83 9 33 3 71 8 85 10 14 2 46 7 71 10 59 9 99
15 125 21 12 3 39 7 60 10 115 18 414 93 604 153 106 33 353 126 445 167 33
15 80 36 105 47 63 28 229 112 330 166 112 60 420 251 440 272 3 3 37 28 75
55 39 27 75 53 80 57 247 193 341 276 524 458 304 302 540 605 763 975 82 136
237 434 283 545 15 36 35 83 45 105 10 22 21 49 25 60 85 226 144 398 160 465
2 8 16 65 33 125 30 113 59 237 67 290 3 17 10 53 15 80 5 28 12 64 14 80 7
49 18 119 21 137 2 9 7 48 10 85 4 37 8 79 11 93 19 118 26 697 11 875 -17
196 -30 302 -53 435 -8 47 -17 99 -19 115 -3 17 -7 41 -10 55 -3 14 -7 35 -9
47 -3 12 -23 95 -45 185 -87 352 -202 661 -372 1003 -60 121 -113 227 -118
235 -21 32 -91 152 -91 156 0 9 -211 317 -278 405 -187 249 -431 513 -657 714
-49 44 -92 82 -95 85 -10 11 -246 196 -300 236 -212 155 -482 316 -740 442
-181 88 -203 98 -305 140 -222 92 -602 213 -745 238 -14 3 -32 7 -40 10 -62
22 -424 81 -605 99 -38 3 -88 8 -110 11 -46 6 -651 14 -657 9z"/>
</g>
</svg>
